# xmcd CD database file
#
# Track frame offsets:
#	187
#	18974
#	40237
#	60129
#	85577
#	110847
#	146724
#	235412
#	260494
#
# Disc length: 4478 seconds
#
# Revision: 1
# Processed by: cddbd v1.5.2PL0 Copyright (c) Steve Scherf et al.
# Submitted via: CDex 1.51
#
DISCID=71117c09
DTITLE=Eric Dolphy - The Complete Prestige Recordings, Cd 06 Six
DYEAR=1996
DGENRE=Jazz
TTITLE0=Duquility
TTITLE1=Thirteen
TTITLE2=We Diddit
TTITLE3=Warm Canto
TTITLE4=Warp and Woof
TTITLE5=Fire Waltz
TTITLE6=Like Someone in Love
TTITLE7=God Bless the Child
TTITLE8=Aggression
EXTD=YEAR: 1996
EXTT0=
EXTT1=
EXTT2=
EXTT3=
EXTT4=
EXTT5=
EXTT6=
EXTT7=
EXTT8=
PLAYORDER=
